<?xml version="1.0" encoding="UTF-8"?>
<svg id="Layer_1" xmlns="http://www.w3.org/2000/svg" version="1.1" viewBox="0 0 116.97 57.05">
  <!-- Generator: Adobe Illustrator 29.3.1, SVG Export Plug-In . SVG Version: 2.1.0 Build 151)  -->
  <defs>
    <style>
      .st0 {
        fill: #b31e4b;
      }

      .st1 {
        fill: #eda5bd;
      }

      .st1, .st2, .st3, .st4 {
        opacity: .69;
      }

      .st2 {
        fill: #db366d;
      }

      .st3 {
        fill: #a61d36;
      }

      .st5 {
        opacity: .79;
      }

      .st5, .st4 {
        fill: #c82250;
      }
    </style>
  </defs>
  <path class="st0" d="M43.04,29.06c-7.83-.04-10.3,0-18.75,0-5.56,0-13.6-.03-23.48-.12.8-.35,7.58-3.38,10.99-6.24,2.62-2.19,2.45-2.72,9.58-10.46,4.6-4.99,6.84-7.13,10.27-8.95,2.26-1.19,4.28-1.85,5.63-2.22,2.6-.22,6.4-.2,10.5,1.27,8.03,2.88,10.92,9.01,17.6,15.3,3.83,3.6,9.81,8.12,19.03,11.58-9.82.11-17.41.07-22.65.01-2.98-.03-9.9-.12-18.74-.16Z"/>
  <path class="st1" d="M116.43,28.94c-.57.02-1.43.05-2.46.09-11.5.38-20.79.19-25.92.03-1.27-.04-1.54-.05-2.32-.08-.68-.03-.86-.04-1.26-.04-.23,0-.22,0-.62,0-.43,0-.54,0-.94,0-.41,0-.37,0-.79,0-.4,0-.52,0-1.01,0-.39,0-.65,0-.91,0-.21,0-.04,0-3.44,0-.56,0-5.94,0-6.37,0-5.73,0-23.71,0-28.79,0-.34,0-7.36,0-7.72,0,2.45-1.05,5.72-2.62,9.35-4.91.82-.52,3.14-2.14,6.2-4.42,5.74-4.29,10.15-8.69,13.41-12.42.95-1.15,2.83-3.13,5.83-4.55,2.7-1.27,5.15-1.54,6.59-1.59,1.56-.22,3.99-.36,6.74.38,3.68.99,5.99,3.06,12.12,9.39,5.91,6.11,7.32,7.86,9.19,9.64.55.52.93.85,1.41,1.27,2.77,2.41,6.56,5.05,11.7,7.24Z"/>
  <path class="st5" d="M116.43,28.94c-10.21.15-20.53.25-30.95.27-14.66.03-29.11-.07-43.36-.29,14.51-6.84,25.85-11.37,31.19-12.92,3.34-.97,5.71-1.16,7.54-1.17,3.09-.02,5.64.53,7.41,1.05,1.22.32,3.02.85,5.11,1.7,4.58,1.86,7.46,3.98,9.39,5.25,2.91,1.92,7.31,4.29,13.66,6.11Z"/>
  <path class="st2" d="M54.99,47.74c-3.83.79-6.81.55-10.47.22-4.38-.39-7.97-1.31-10.52-2.12-.55-.18-1.35-.46-2.31-.82-4.35-1.65-7.38-3.42-9.4-4.59-6.77-3.94-10.16-5.91-12.65-7.24-3.7-1.97-6.81-3.39-8.83-4.27,91.08-.05,113.16.01,113.16.09,0,.04-4.52.14-11.18.51,0,0-20.72,1.22-28.14,6.6-2.2,1.59-2.11,2.03-5.35,4.38-3.97,2.88-8.24,5.97-14.3,7.22Z"/>
  <path class="st3" d="M79.66,50.46c-.4.25-5.01,2.83-10.84,4.07-2.57.54-5.68.89-9.17.12-.26-.06-.02-.01-1.46-.38-4.69-1.22-6.2-1.45-9.43-2.38-1.25-.36-2.19-.66-2.53-.77-6.83-2.19-12.6-5.18-12.53-5.35.01-.03.25.01,1.27.39,0,0,1.32.39,2.62.7,3.2.77,6.7,1.09,6.7,1.09,2.22.2,7.16.66,11.61-.41,1.76-.42,3.35-1.04,3.35-1.04,1.27-.5,2.2-.98,3.09-1.44.64-.33,1.55-.81,2.69-1.54.4-.26.86-.58,1.78-1.22,1.2-.85,1.8-1.27,2.54-1.82,1.26-.95,2.22-1.76,2.55-2.04,1.26-1.07,1.65-1.51,2.73-2.28,0,0,.64-.45,1.42-.94,2.82-1.79,8.48-4.91,15.7-5.92,2.83-.39,2.96-.05,11.89-.07,5.41-.01,9.84-.15,12.78-.26-15.91,9.44-28.78,16.48-36.77,21.52Z"/>
  <path class="st4" d="M38.45,42.57c-3.89-1.02-6.96-2.12-9.06-2.95-1.56-.61-3.57-1.5-7.52-3.26-4.13-1.84-5.55-2.5-6.63-2.98-3.13-1.38-7.8-3.11-14.3-4.46,24.65.03,49.29.06,73.94.09-4.53,1.06-8.01,2.51-10.45,3.72-7.41,3.65-9.68,7.19-16.02,9.03-4.06,1.18-7.66,1.06-9.95.81Z"/>
</svg>